<svg xmlns="http://www.w3.org/2000/svg" viewBox="0 0 24 24"><defs><style>.a{fill:none;stroke:#000;stroke-linecap:round;stroke-linejoin:round;stroke-width:1.5px;}</style></defs><title>allowances-no-talking</title><path class="a" d="M7.88,21.572a6,6,0,0,0,3.206.928H14A5.118,5.118,0,0,0,17.625,21h0a5.122,5.122,0,0,0,1.5-3.621V9.75"/><path class="a" d="M10.125,9.75V4.5A1.5,1.5,0,0,0,8.625,3h0a1.5,1.5,0,0,0-1.5,1.5v9.75L4.686,12.3a1.539,1.539,0,0,0-2.242.348h0a1.537,1.537,0,0,0,0,1.707L3.876,16.5"/><path class="a" d="M13.125,5.25V3a1.5,1.5,0,0,0-1.5-1.5h0a1.5,1.5,0,0,0-1.5,1.5V4.5"/><path class="a" d="M16.125,4.5a1.5,1.5,0,0,0-1.5-1.5h0a1.5,1.5,0,0,0-1.5,1.5V6.75"/><line class="a" x1="22.125" y1="3" x2="1.875" y2="22.5"/></svg>