<?xml version="1.0" standalone="no"?><svg xmlns="http://www.w3.org/2000/svg" xmlns:xlink="http://www.w3.org/1999/xlink" style="isolation:isolate" viewBox="0 0 146 37.415" width="146" height="37.415"><defs><clipPath id="_clipPath_4W0GLcgdz0zmngkdUvUkFxnGEGlzrJ1p"><rect width="146" height="37.415"/></clipPath></defs><g clip-path="url(#_clipPath_4W0GLcgdz0zmngkdUvUkFxnGEGlzrJ1p)"><path d=" M 102.959 33.276 L 146 33.276 L 146 36.775 L 102.959 36.775 L 102.959 33.276 Z " fill="rgb(0,153,204)" fill-opacity="0.5"/><path d=" M 2.017 36.566 L 1.274 35.08 L 0.743 35.08 L 0.743 36.566 L 0 36.566 L 0 32.904 L 1.433 32.904 C 2.176 32.904 2.654 33.435 2.654 34.019 C 2.654 34.55 2.335 34.868 1.964 34.974 L 2.813 36.566 L 2.017 36.566 L 2.017 36.566 Z  M 1.433 33.488 L 0.743 33.488 L 0.743 34.443 L 1.433 34.443 C 1.751 34.443 1.964 34.231 1.964 33.966 C 1.964 33.7 1.751 33.488 1.433 33.488 Z  M 3.45 36.566 L 3.45 32.904 L 5.891 32.904 L 5.891 33.541 L 4.14 33.541 L 4.14 34.39 L 5.573 34.39 L 5.573 35.027 L 4.14 35.027 L 4.14 35.929 L 5.838 35.929 L 5.838 36.566 L 3.45 36.566 L 3.45 36.566 Z  M 8.863 36.195 C 8.598 36.46 8.279 36.566 7.908 36.566 L 6.581 36.566 L 6.581 32.904 L 7.908 32.904 C 8.279 32.904 8.651 33.011 8.863 33.276 C 9.288 33.7 9.234 34.178 9.234 34.762 C 9.234 35.24 9.288 35.77 8.863 36.195 Z  M 8.385 33.754 C 8.279 33.594 8.12 33.541 7.855 33.541 L 7.324 33.541 L 7.324 35.929 L 7.855 35.929 C 8.12 35.929 8.279 35.876 8.385 35.717 C 8.545 35.558 8.545 35.293 8.545 34.709 C 8.545 34.125 8.491 33.913 8.385 33.754 Z  M 9.977 36.566 L 9.977 32.904 L 12.419 32.904 L 12.419 33.541 L 10.72 33.541 L 10.72 34.39 L 12.153 34.39 L 12.153 35.027 L 10.72 35.027 L 10.72 35.929 L 12.419 35.929 L 12.419 36.566 L 9.977 36.566 L 9.977 36.566 Z  M 15.55 36.566 C 15.125 36.566 14.807 36.407 14.542 36.142 C 14.17 35.77 14.17 35.293 14.17 34.656 C 14.17 34.019 14.17 33.541 14.542 33.17 C 14.803 32.893 15.169 32.739 15.55 32.745 C 16.24 32.745 16.771 33.117 16.93 33.913 L 16.187 33.913 C 16.134 33.594 15.921 33.382 15.55 33.382 C 15.338 33.382 15.178 33.435 15.072 33.594 C 14.913 33.754 14.913 33.913 14.913 34.656 C 14.913 35.346 14.966 35.558 15.072 35.717 C 15.196 35.849 15.369 35.926 15.55 35.929 C 15.921 35.929 16.081 35.717 16.187 35.399 L 16.93 35.399 C 16.771 36.195 16.24 36.566 15.55 36.566 L 15.55 36.566 Z  M 17.514 36.566 L 17.514 32.904 L 18.257 32.904 L 18.257 36.566 L 17.514 36.566 L 17.514 36.566 Z  M 19.106 36.566 L 19.106 32.904 L 21.547 32.904 L 21.547 33.541 L 19.849 33.541 L 19.849 34.39 L 21.282 34.39 L 21.282 35.027 L 19.849 35.027 L 19.849 35.929 L 21.547 35.929 L 21.547 36.566 L 19.106 36.566 L 19.106 36.566 Z  M 20.698 32.48 L 20.273 32.002 L 19.849 32.48 L 19.318 32.48 L 20.008 31.578 L 20.539 31.578 L 21.229 32.48 L 20.698 32.48 L 20.698 32.48 Z  M 24.413 36.566 L 22.927 34.284 L 22.927 36.566 L 22.184 36.566 L 22.184 32.904 L 22.821 32.904 L 24.307 35.186 L 24.307 32.904 L 25.05 32.904 L 25.05 36.566 L 24.413 36.566 L 24.413 36.566 Z  M 27.12 36.566 C 26.695 36.566 26.377 36.407 26.111 36.142 C 25.74 35.77 25.74 35.293 25.74 34.656 C 25.74 34.019 25.74 33.541 26.111 33.17 C 26.373 32.893 26.739 32.739 27.12 32.745 C 27.81 32.745 28.34 33.117 28.499 33.913 L 27.756 33.913 C 27.703 33.594 27.491 33.382 27.12 33.382 C 26.907 33.382 26.748 33.435 26.642 33.594 C 26.483 33.754 26.483 33.913 26.483 34.656 C 26.483 35.346 26.536 35.558 26.642 35.717 C 26.766 35.849 26.939 35.926 27.12 35.929 C 27.491 35.929 27.65 35.717 27.756 35.399 L 28.499 35.399 C 28.393 36.195 27.81 36.566 27.12 36.566 L 27.12 36.566 Z  M 29.136 36.566 L 29.136 32.904 L 29.879 32.904 L 29.879 36.566 L 29.136 36.566 L 29.136 36.566 Z  M 32.798 36.566 L 32.586 35.929 L 31.259 35.929 L 31.047 36.566 L 30.304 36.566 L 31.631 32.904 L 32.214 32.904 L 33.541 36.566 L 32.798 36.566 L 32.798 36.566 Z  M 31.949 33.966 L 31.471 35.293 L 32.374 35.293 L 31.949 33.966 L 31.949 33.966 Z  M 33.913 37.415 L 33.913 35.823 L 34.656 35.823 L 34.656 36.832 L 33.913 37.415 L 33.913 37.415 Z  M 38.052 33.488 L 38.052 36.513 L 37.309 36.513 L 37.309 33.488 L 36.354 33.488 L 36.354 32.851 L 39.008 32.851 L 39.008 33.488 L 38.052 33.488 L 38.052 33.488 Z  M 39.591 36.566 L 39.591 32.904 L 42.033 32.904 L 42.033 33.541 L 40.334 33.541 L 40.334 34.39 L 41.767 34.39 L 41.767 35.027 L 40.334 35.027 L 40.334 35.929 L 42.033 35.929 L 42.033 36.566 L 39.591 36.566 L 39.591 36.566 Z  M 43.996 36.566 C 43.615 36.572 43.25 36.418 42.988 36.142 C 42.617 35.77 42.617 35.293 42.617 34.656 C 42.617 34.019 42.617 33.541 42.988 33.17 C 43.249 32.893 43.615 32.739 43.996 32.745 C 44.686 32.745 45.217 33.117 45.376 33.913 L 44.633 33.913 C 44.58 33.594 44.368 33.382 43.996 33.382 C 43.784 33.382 43.625 33.435 43.519 33.594 C 43.36 33.754 43.36 33.913 43.36 34.656 C 43.36 35.346 43.413 35.558 43.519 35.717 C 43.643 35.849 43.815 35.925 43.996 35.929 C 44.368 35.929 44.527 35.717 44.633 35.399 L 45.376 35.399 C 45.217 36.195 44.633 36.566 43.996 36.566 L 43.996 36.566 Z  M 48.136 36.566 L 46.65 34.284 L 46.65 36.566 L 45.907 36.566 L 45.907 32.904 L 46.544 32.904 L 48.03 35.186 L 48.03 32.904 L 48.773 32.904 L 48.773 36.566 L 48.136 36.566 L 48.136 36.566 Z  M 51.851 36.195 C 51.589 36.471 51.224 36.625 50.843 36.619 C 50.418 36.619 50.1 36.46 49.834 36.195 C 49.463 35.823 49.463 35.346 49.463 34.709 C 49.463 34.072 49.463 33.594 49.834 33.223 C 50.096 32.946 50.462 32.792 50.843 32.798 C 51.267 32.798 51.586 32.957 51.851 33.223 C 52.222 33.594 52.222 34.072 52.222 34.709 C 52.222 35.346 52.222 35.823 51.851 36.195 Z  M 51.32 33.647 C 51.196 33.515 51.024 33.439 50.843 33.435 C 50.63 33.435 50.471 33.488 50.365 33.647 C 50.206 33.807 50.206 33.966 50.206 34.709 C 50.206 35.399 50.259 35.611 50.365 35.77 C 50.489 35.903 50.661 35.979 50.843 35.983 C 51.055 35.983 51.214 35.929 51.32 35.77 C 51.479 35.611 51.479 35.452 51.479 34.709 C 51.533 34.019 51.479 33.807 51.32 33.647 Z  M 52.965 36.566 L 52.965 32.904 L 53.708 32.904 L 53.708 35.929 L 55.407 35.929 L 55.407 36.566 L 52.965 36.566 L 52.965 36.566 Z  M 58.06 36.195 C 57.798 36.471 57.433 36.625 57.052 36.619 C 56.627 36.619 56.309 36.46 56.044 36.195 C 55.672 35.823 55.672 35.346 55.672 34.709 C 55.672 34.072 55.672 33.594 56.044 33.223 C 56.305 32.946 56.671 32.792 57.052 32.798 C 57.477 32.798 57.795 32.957 58.06 33.223 C 58.432 33.594 58.432 34.072 58.432 34.709 C 58.432 35.346 58.432 35.823 58.06 36.195 Z  M 57.53 33.647 C 57.406 33.515 57.233 33.439 57.052 33.435 C 56.84 33.435 56.68 33.488 56.574 33.647 C 56.415 33.807 56.415 33.966 56.415 34.709 C 56.415 35.399 56.468 35.611 56.574 35.77 C 56.698 35.902 56.871 35.979 57.052 35.983 C 57.264 35.983 57.423 35.929 57.53 35.77 C 57.689 35.611 57.689 35.452 57.689 34.709 C 57.689 34.019 57.636 33.807 57.53 33.647 Z  M 61.404 36.142 C 61.085 36.46 60.767 36.566 60.342 36.566 C 59.961 36.572 59.596 36.418 59.334 36.142 C 58.963 35.77 58.963 35.293 58.963 34.656 C 58.963 34.019 58.963 33.541 59.334 33.17 C 59.595 32.893 59.961 32.739 60.342 32.745 C 61.192 32.745 61.616 33.329 61.722 33.913 L 60.979 33.913 C 60.873 33.541 60.661 33.382 60.342 33.382 C 60.13 33.382 59.971 33.435 59.865 33.594 C 59.706 33.754 59.706 33.913 59.706 34.656 C 59.706 35.346 59.759 35.558 59.865 35.717 C 59.989 35.849 60.161 35.925 60.342 35.929 C 60.542 35.94 60.736 35.862 60.873 35.717 C 60.973 35.578 61.028 35.411 61.032 35.24 L 61.032 35.08 L 60.395 35.08 L 60.395 34.497 L 61.775 34.497 L 61.775 35.027 C 61.775 35.558 61.669 35.876 61.404 36.142 L 61.404 36.142 Z  M 62.518 36.566 L 62.518 32.904 L 63.261 32.904 L 63.261 36.566 L 62.518 36.566 L 62.518 36.566 Z  M 66.18 36.566 L 65.968 35.929 L 64.641 35.929 L 64.429 36.566 L 63.686 36.566 L 65.013 32.904 L 65.597 32.904 L 66.923 36.566 L 66.18 36.566 L 66.18 36.566 Z  M 65.331 33.966 L 64.854 35.293 L 65.756 35.293 L 65.331 33.966 L 65.331 33.966 Z  M 68.569 36.566 L 68.569 32.904 L 71.01 32.904 L 71.01 33.541 L 69.312 33.541 L 69.312 34.39 L 70.744 34.39 L 70.744 35.027 L 69.312 35.027 L 69.312 35.929 L 71.01 35.929 L 71.01 36.566 L 68.569 36.566 L 68.569 36.566 Z  M 73.929 36.566 C 73.345 36.566 72.92 36.46 72.602 36.089 L 73.08 35.611 C 73.292 35.823 73.61 35.929 73.982 35.929 C 74.406 35.929 74.619 35.77 74.619 35.452 C 74.619 35.346 74.566 35.24 74.513 35.133 C 74.459 35.08 74.353 35.027 74.194 35.027 L 73.77 34.974 C 73.451 34.921 73.239 34.815 73.08 34.656 C 72.92 34.497 72.814 34.231 72.814 33.913 C 72.814 33.276 73.292 32.798 74.088 32.798 C 74.619 32.798 74.937 32.904 75.256 33.223 L 74.778 33.647 C 74.566 33.435 74.247 33.382 74.035 33.382 C 73.663 33.382 73.451 33.594 73.451 33.86 C 73.451 33.966 73.504 34.072 73.557 34.125 C 73.61 34.178 73.77 34.231 73.876 34.284 L 74.3 34.337 C 74.619 34.39 74.831 34.497 74.99 34.603 C 75.202 34.762 75.256 35.08 75.256 35.399 C 75.309 36.195 74.725 36.566 73.929 36.566 L 73.929 36.566 Z  M 78.228 36.195 C 77.966 36.471 77.6 36.625 77.219 36.619 C 76.838 36.625 76.473 36.471 76.211 36.195 C 75.839 35.823 75.839 35.346 75.839 34.709 C 75.839 34.072 75.839 33.594 76.211 33.223 C 76.472 32.946 76.838 32.792 77.219 32.798 C 77.644 32.798 77.962 32.957 78.228 33.223 C 78.599 33.594 78.599 34.072 78.599 34.709 C 78.599 35.346 78.599 35.823 78.228 36.195 Z  M 77.697 33.647 C 77.573 33.515 77.4 33.438 77.219 33.435 C 77.007 33.435 76.848 33.488 76.742 33.647 C 76.582 33.807 76.582 33.966 76.582 34.709 C 76.582 35.399 76.635 35.611 76.742 35.77 C 76.866 35.902 77.038 35.979 77.219 35.983 C 77.431 35.983 77.591 35.929 77.697 35.77 C 77.856 35.611 77.856 35.452 77.856 34.709 C 77.856 34.019 77.803 33.807 77.697 33.647 Z  M 80.563 36.566 C 80.138 36.566 79.82 36.407 79.554 36.142 C 79.183 35.77 79.183 35.293 79.183 34.656 C 79.183 34.019 79.183 33.541 79.554 33.17 C 79.816 32.893 80.182 32.739 80.563 32.745 C 81.253 32.745 81.783 33.117 81.943 33.913 L 81.2 33.913 C 81.146 33.594 80.934 33.382 80.563 33.382 C 80.35 33.382 80.191 33.435 80.085 33.594 C 79.926 33.754 79.926 33.913 79.926 34.656 C 79.926 35.346 79.979 35.558 80.085 35.717 C 80.209 35.849 80.382 35.926 80.563 35.929 C 80.934 35.929 81.093 35.717 81.2 35.399 L 81.943 35.399 C 81.783 36.195 81.253 36.566 80.563 36.566 L 80.563 36.566 Z  M 82.526 36.566 L 82.526 32.904 L 83.269 32.904 L 83.269 36.566 L 82.526 36.566 L 82.526 36.566 Z  M 84.119 36.566 L 84.119 32.904 L 86.56 32.904 L 86.56 33.541 L 84.808 33.541 L 84.808 34.39 L 86.241 34.39 L 86.241 35.027 L 84.808 35.027 L 84.808 35.929 L 86.507 35.929 L 86.507 36.566 L 84.119 36.566 L 84.119 36.566 Z  M 89.532 36.195 C 89.266 36.46 88.948 36.566 88.577 36.566 L 87.25 36.566 L 87.25 32.904 L 88.577 32.904 C 88.948 32.904 89.32 33.011 89.532 33.276 C 89.956 33.7 89.903 34.178 89.903 34.762 C 89.903 35.24 89.956 35.77 89.532 36.195 Z  M 89.054 33.754 C 88.948 33.594 88.789 33.541 88.523 33.541 L 87.993 33.541 L 87.993 35.929 L 88.523 35.929 C 88.789 35.929 88.948 35.876 89.054 35.717 C 89.213 35.558 89.213 35.293 89.213 34.709 C 89.213 34.125 89.16 33.913 89.054 33.754 Z  M 92.716 36.566 L 92.504 35.929 L 91.177 35.929 L 90.965 36.566 L 90.222 36.566 L 91.549 32.904 L 92.132 32.904 L 93.459 36.566 L 92.716 36.566 L 92.716 36.566 Z  M 91.814 33.966 L 91.336 35.293 L 92.238 35.293 L 91.814 33.966 L 91.814 33.966 Z  M 96.219 36.195 C 95.953 36.46 95.635 36.566 95.264 36.566 L 93.937 36.566 L 93.937 32.904 L 95.264 32.904 C 95.635 32.904 96.007 33.011 96.219 33.276 C 96.643 33.7 96.59 34.178 96.59 34.762 C 96.59 35.24 96.643 35.77 96.219 36.195 Z  M 95.688 33.754 C 95.582 33.594 95.423 33.541 95.157 33.541 L 94.627 33.541 L 94.627 35.929 L 95.157 35.929 C 95.423 35.929 95.582 35.876 95.688 35.717 C 95.847 35.558 95.847 35.293 95.847 34.709 C 95.847 34.125 95.847 33.913 95.688 33.754 Z  M 97.333 36.566 L 97.333 32.904 L 99.775 32.904 L 99.775 33.541 L 98.076 33.541 L 98.076 34.39 L 99.509 34.39 L 99.509 35.027 L 98.076 35.027 L 98.076 35.929 L 99.775 35.929 L 99.775 36.566 L 97.333 36.566 L 97.333 36.566 Z " fill-rule="evenodd" fill="rgb(0,153,204)"/><path d=" M 138.517 14.435 C 138.517 15.391 138.995 16.293 139.844 16.824 C 139.791 17.089 137.562 30.941 137.562 30.941 L 145.575 30.941 C 145.575 30.941 142.922 17.142 142.869 16.877 C 143.718 16.346 144.249 15.497 144.249 14.489 C 144.239 12.94 142.985 11.686 141.436 11.676 C 139.791 11.623 138.517 12.896 138.517 14.435 Z " fill="rgb(0,153,204)" fill-opacity="0.5"/><path d=" M 114.104 30.941 L 114.104 29.296 C 113.467 29.932 112.83 30.41 112.087 30.675 C 111.397 30.994 110.495 31.1 109.381 31.1 C 107.258 31.1 105.666 30.516 104.498 29.402 C 103.967 28.871 103.596 28.234 103.33 27.491 C 103.052 26.725 102.909 25.917 102.906 25.103 C 102.906 24.36 103.065 23.617 103.33 22.98 C 103.596 22.29 104.02 21.706 104.551 21.229 C 105.137 20.706 105.823 20.309 106.568 20.061 C 107.364 19.743 108.319 19.636 109.434 19.636 L 113.945 19.636 L 113.945 18.681 C 113.945 17.62 113.679 16.877 113.096 16.399 C 112.565 15.921 111.61 15.656 110.389 15.656 C 109.487 15.656 108.797 15.762 108.266 16.028 C 107.735 16.293 107.258 16.664 106.727 17.248 L 103.702 14.276 C 104.604 13.268 105.613 12.578 106.674 12.206 C 107.735 11.835 109.009 11.676 110.601 11.676 C 113.308 11.676 115.325 12.26 116.704 13.374 C 118.084 14.489 118.774 16.187 118.774 18.416 L 118.774 30.994 L 114.104 30.994 L 114.104 30.941 L 114.104 30.941 Z  M 113.945 22.874 L 110.177 22.874 C 109.328 22.874 108.691 23.086 108.213 23.458 C 107.735 23.829 107.523 24.36 107.523 25.05 C 107.523 25.687 107.735 26.217 108.213 26.642 C 108.638 27.067 109.328 27.226 110.283 27.226 C 110.92 27.226 111.503 27.173 111.981 27.067 C 112.459 26.96 112.883 26.695 113.308 26.27 C 113.786 25.846 113.998 25.05 113.998 23.829 L 113.998 22.874 L 113.945 22.874 L 113.945 22.874 Z  M 131.352 30.941 L 131.352 29.296 C 130.715 29.932 130.079 30.41 129.336 30.675 C 128.646 30.994 127.743 31.1 126.629 31.1 C 124.506 31.1 122.914 30.516 121.746 29.402 C 121.216 28.871 120.844 28.234 120.579 27.491 C 120.3 26.726 120.157 25.918 120.154 25.103 C 120.156 24.374 120.301 23.653 120.579 22.98 C 120.844 22.29 121.269 21.706 121.799 21.229 C 122.385 20.706 123.071 20.309 123.816 20.061 C 124.612 19.743 125.567 19.636 126.682 19.636 L 131.193 19.636 L 131.193 18.681 C 131.193 17.62 130.928 16.877 130.344 16.399 C 129.813 15.921 128.858 15.656 127.637 15.656 C 126.735 15.656 126.045 15.762 125.514 16.028 C 124.984 16.293 124.506 16.664 123.975 17.248 L 120.95 14.276 C 121.852 13.268 122.861 12.578 123.922 12.206 C 124.984 11.835 126.257 11.676 127.85 11.676 C 130.556 11.676 132.573 12.26 133.953 13.374 C 135.333 14.489 136.023 16.187 136.023 18.416 L 136.023 30.994 L 131.352 30.994 L 131.352 30.941 L 131.352 30.941 Z  M 131.246 22.874 L 127.478 22.874 C 126.629 22.874 125.992 23.086 125.514 23.458 C 125.037 23.829 124.824 24.36 124.824 25.05 C 124.824 25.687 125.037 26.217 125.514 26.642 C 125.939 27.067 126.629 27.226 127.584 27.226 C 128.221 27.226 128.805 27.173 129.229 27.067 C 129.707 26.96 130.132 26.695 130.556 26.27 C 131.034 25.846 131.246 25.05 131.246 23.829 L 131.246 22.874 L 131.246 22.874 Z " fill-rule="evenodd" fill="rgb(0,153,204)" fill-opacity="0.5"/><path d=" M 16.293 30.888 L 10.349 18.681 L 6.05 18.681 L 6.05 30.888 L 0.106 30.888 L 0.106 0.318 L 12.1 0.318 C 18.31 0.318 22.025 4.564 22.025 9.659 C 22.025 13.958 19.424 16.611 16.452 17.673 L 23.298 30.835 L 16.293 30.835 L 16.293 30.888 L 16.293 30.888 Z  M 11.676 5.626 L 6.05 5.626 L 6.05 13.692 L 11.676 13.692 C 14.276 13.692 16.028 11.994 16.028 9.659 C 16.028 7.324 14.276 5.626 11.676 5.626 Z  M 38.795 31.1 C 35.452 31.1 32.692 29.879 30.569 27.756 C 27.491 24.678 27.544 20.857 27.544 15.55 C 27.544 10.296 27.438 6.475 30.569 3.344 C 32.692 1.221 35.452 0 38.795 0 C 44.527 0 48.985 3.237 50.047 9.659 L 43.996 9.659 C 43.413 7.218 41.874 5.307 38.848 5.307 C 37.203 5.307 35.876 5.891 35.027 6.899 C 33.86 8.173 33.541 9.659 33.541 15.55 C 33.541 21.441 33.86 22.874 35.027 24.148 C 35.876 25.156 37.203 25.74 38.848 25.74 C 41.874 25.74 43.413 23.829 43.996 21.388 L 50.047 21.388 C 48.932 27.863 44.474 31.1 38.795 31.1 Z  M 66.393 5.626 L 66.393 30.835 L 60.449 30.835 L 60.449 5.626 L 52.488 5.626 L 52.488 0.318 L 74.406 0.318 L 74.406 5.626 L 66.393 5.626 L 66.393 5.626 Z  M 88.099 31.1 C 83.482 31.1 79.926 30.092 76.954 27.067 L 80.828 23.192 C 82.739 25.103 85.392 25.793 88.205 25.793 C 91.708 25.793 93.618 24.466 93.618 22.025 C 93.618 20.963 93.3 20.061 92.663 19.424 C 92.079 18.893 91.389 18.575 89.956 18.363 L 86.241 17.832 C 83.641 17.461 81.677 16.611 80.297 15.285 C 78.864 13.852 78.121 11.835 78.121 9.288 C 78.121 3.821 82.155 0 88.736 0 C 92.928 0 96.007 1.008 98.607 3.556 L 94.839 7.271 C 92.928 5.413 90.593 5.148 88.577 5.148 C 85.392 5.148 83.853 6.899 83.853 9.022 C 83.853 9.818 84.119 10.614 84.755 11.198 C 85.339 11.782 86.348 12.206 87.568 12.419 L 91.177 12.949 C 93.99 13.321 95.741 14.117 97.015 15.285 C 98.66 16.824 99.35 19.053 99.35 21.759 C 99.403 27.756 94.467 31.1 88.099 31.1 L 88.099 31.1 Z " fill-rule="evenodd" fill="rgb(0,153,204)"/></g></svg>