<svg xmlns="http://www.w3.org/2000/svg" viewBox="0 0 24 24"><defs><style>.a{fill:none;stroke:#000;stroke-linecap:round;stroke-linejoin:round;stroke-width:1.5px;}</style></defs><title>robot-2</title><path class="a" d="M18.75,7.5a6.75,6.75,0,0,0-13.5,0v3.75h13.5Z"/><line class="a" x1="9" y1="6.75" x2="9" y2="8.25"/><line class="a" x1="15" y1="6.75" x2="15" y2="8.25"/><path class="a" d="M5.25,11.25C7.3,21.472,9,23.25,12,23.25s4.706-1.778,6.75-12Z"/><path class="a" d="M5.25,11.25H3.75a1.5,1.5,0,0,0-1.5,1.5v4.5"/><path class="a" d="M.75,20.25v-1.5a1.5,1.5,0,0,1,3,0v1.5"/><path class="a" d="M18.75,11.25h1.5a1.5,1.5,0,0,1,1.5,1.5v4.5"/><path class="a" d="M23.25,20.25v-1.5a1.5,1.5,0,0,0-3,0v1.5"/></svg>