<?xml version="1.0" encoding="UTF-8"?>
<svg width="73px" height="38px" viewBox="0 0 73 38" version="1.1" xmlns="http://www.w3.org/2000/svg" xmlns:xlink="http://www.w3.org/1999/xlink">
    <title>surf conext logo</title>
    <g id="Visual-Design" stroke="none" stroke-width="1" fill="none" fill-rule="evenodd">
        <g id="Service-connected-LOA2---Full-width" transform="translate(-224.000000, -11.000000)" fill="#FFFFFF" fill-rule="nonzero">
            <g id="surf-conext-logo" transform="translate(224.000000, 11.000000)">
                <path d="M46.2149332,0 C50.02127,0 53.1068747,3.13457397 53.1068747,7.00056117 L53.1068747,15.6565657 C53.1068747,19.5231216 56.1924794,22.6571268 59.9997632,22.6571268 L66.9121618,22.6571268 C69.9704904,22.6571268 72.4509074,25.1755543 72.4509074,28.2824491 L72.4509074,31.8760048 C72.4509074,34.9825204 69.9704904,37.5 66.9121618,37.5 L58.6448627,37.5 C55.5863446,37.5 53.1068747,34.9825204 53.1068747,31.8760048 L53.1068747,29.6567401 C53.1068747,25.7909425 50.02127,22.6571268 46.2149332,22.6571268 L6.89194149,22.6571268 C3.08617295,22.6571268 0,19.5231216 0,15.6565657 L0,7.00056117 C0,3.13457397 3.08617295,0 6.89194149,0 L46.2149332,0 Z M24.3791562,6.15649741 C23.6537016,6.15649741 23.2569515,6.52948928 23.2392922,7.26255576 L23.2386758,7.31428398 L23.2386758,11.7592593 C23.2386758,13.3356463 22.2967045,14.2784451 20.9838546,14.2784451 C19.7033754,14.2784451 18.7702588,13.3631717 18.7430911,11.8283937 L18.7424819,11.7592593 L18.7424819,7.31428398 C18.7424819,6.54703946 18.3443272,6.15649741 17.5889317,6.15649741 C16.863292,6.15649741 16.4661759,6.52948928 16.4485,7.26255576 L16.4478831,7.31428398 L16.4478831,11.7592593 C16.4478831,14.682258 18.3708456,16.5684245 20.9838546,16.5684245 C23.583485,16.5684245 25.4947338,14.7197927 25.5326988,11.8466373 L25.5332747,11.7592593 L25.5332747,7.31428398 C25.5332747,6.54703946 25.1347411,6.15649741 24.3791562,6.15649741 Z M10.2285807,6.10203006 C8.05369344,6.10203006 6.44876228,7.34114797 6.44876228,9.1598227 C6.44876228,10.6440079 7.47574011,11.5027663 8.65836956,11.876391 L10.6105954,12.4753183 L10.7704587,12.526759 L10.8730616,12.5612507 L10.9721819,12.5961307 L11.0675587,12.6315959 C11.0831284,12.6375664 11.0985312,12.6435696 11.1137617,12.6496095 L11.2030339,12.6863218 C11.2320732,12.6987279 11.2603797,12.7113136 11.2879102,12.7241118 L11.3681295,12.7631765 C11.6793451,12.9222472 11.8725318,13.1166376 11.8725318,13.4030811 C11.8725318,14.0362901 11.0110627,14.3862613 10.2550991,14.3862613 C9.62014585,14.3862613 9.13440695,14.283151 8.72498712,14.1605297 L8.60437784,14.1232416 C8.58463359,14.1169572 8.56506191,14.110645 8.54565371,14.1043153 L8.43109308,14.0662117 L8.26565118,14.0093692 C7.90765285,13.887467 7.58924269,13.7936232 7.24450355,13.7936232 C6.58116484,13.7936232 6.19683752,14.2110861 6.19683752,14.8842972 C6.19683752,15.4364335 6.75686977,15.86092 7.55240123,16.1456072 L7.66490135,16.1844224 L7.78026232,16.2214158 C7.81917102,16.2334424 7.85852386,16.2451642 7.89828822,16.2565799 L8.01878311,16.2899073 L8.14155106,16.3213909 L8.26639616,16.3510232 C8.30833563,16.3605912 8.35058862,16.3698495 8.39312247,16.3787968 L8.52153407,16.4047046 L8.65143504,16.4287391 C8.67319844,16.4325883 8.69501571,16.4363592 8.71688279,16.4400515 L8.84865043,16.4612623 L8.98141761,16.4805815 L9.1149884,16.4980018 L9.18201393,16.5059975 L9.18201393,16.5059975 L9.31642278,16.5205556 L9.45114541,16.5331964 C9.4960835,16.5370897 9.54104122,16.5406621 9.58598594,16.5439126 L9.72074839,16.5526968 L9.85523684,16.5595418 L9.98925542,16.5644401 L10.1226081,16.5673845 C10.1669263,16.5680395 10.2111008,16.5683676 10.2550991,16.5683676 C12.4830231,16.5683676 14.2205462,15.3561706 14.2205462,13.4705728 C14.2205462,11.8611147 13.2611104,11.0808091 12.1369057,10.6597655 L12.027624,10.6201251 C12.0093335,10.6137 11.9910069,10.6073645 11.9726474,10.6011165 L11.8621227,10.5646632 L9.93668891,9.96763809 C9.89438233,9.95455171 9.85331661,9.94154287 9.81348117,9.9285691 L9.69765518,9.88971047 L9.58914782,9.8508073 L9.48789587,9.81160463 C9.01594356,9.62099065 8.79601908,9.41094913 8.79601908,9.05194968 C8.79601908,8.54026375 9.59157094,8.28432599 10.2285807,8.28432599 C10.8232671,8.28432599 11.2951984,8.40094716 11.6913543,8.53390624 L11.8139921,8.57631944 L11.9892222,8.64044065 C12.0081447,8.64752556 12.0268915,8.65458261 12.0454696,8.6615972 L12.2602934,8.73479828 C12.4941214,8.81316866 12.7153359,8.8767745 12.9599754,8.8767745 C13.5700879,8.8767745 13.9019467,8.45931158 13.9019467,7.78610049 C13.9019467,7.15058293 13.2276205,6.68418068 12.3317074,6.40542042 L12.2136297,6.37012604 C12.1738764,6.35871697 12.1337414,6.34766414 12.093262,6.33696905 L11.9708276,6.30595861 L11.8465497,6.27710385 C11.7631328,6.25858793 11.6786359,6.24151521 11.5933564,6.22589789 L11.4648876,6.20356495 L11.3354684,6.18342424 C11.3138317,6.18025065 11.2921647,6.17716878 11.2704721,6.17417882 L11.1400458,6.15734357 L11.0092273,6.14272337 C10.9655805,6.13822017 10.9219056,6.13408767 10.8782397,6.13032737 L10.7473063,6.12016471 C10.725501,6.11865754 10.7037073,6.11724382 10.6819298,6.11592373 L10.5514964,6.10912818 L10.4216755,6.10458881 L10.2926902,6.10231474 C10.2712747,6.10203006 10.2499033,6.10203006 10.2285807,6.10203006 Z M32.6544109,6.24992417 L29.3655616,6.24992417 C28.6399219,6.24992417 28.2429866,6.62327816 28.2253189,7.35706889 L28.2247024,7.40884824 L28.2247024,15.3561895 C28.2247024,16.1240028 28.6230465,16.5145448 29.3655616,16.5145448 C30.1041705,16.5145448 30.5012395,16.1411674 30.5185223,15.406818 L30.5191118,15.3561895 L30.5191118,13.295227 L32.6150121,13.295227 L33.7554925,15.7740316 C33.9680185,16.2586071 34.2724118,16.5145448 34.6963273,16.5145448 C35.267041,16.5145448 36.0224365,16.0834319 36.0224365,15.4100312 C36.0224365,15.2257905 35.9898755,15.0423332 35.9042606,14.8488341 L35.8769641,14.7904723 L34.8160389,12.6352868 C35.7968407,12.1101404 36.381003,11.1260124 36.381003,9.83305275 C36.381003,7.74093404 34.8886508,6.28124226 32.7244556,6.25042177 L32.6544109,6.24992417 Z M45.5056798,6.24996208 L40.0148566,6.24996208 C39.2886615,6.24996208 38.89298,6.62331608 38.8753697,7.35692987 L38.874755,7.40869658 L38.874755,15.3562274 C38.874755,16.1240407 39.2717733,16.5145828 40.0148566,16.5145828 C40.7541946,16.5145828 41.1371496,16.1415909 41.1541748,15.4079936 L41.1547688,15.3562274 L41.1547688,12.8510708 L43.8742302,12.8510708 C44.6036755,12.8510708 44.9611056,12.4737996 44.9611056,11.7459884 C44.9611056,11.0224903 44.6197377,10.6457298 43.9233889,10.628978 L43.8742302,10.6283935 L41.1547688,10.6283935 L41.1547688,8.47263931 L45.5056798,8.47263931 C46.235125,8.47263931 46.5927445,8.0953681 46.5927445,7.35485485 C46.5927445,6.64452507 46.2515651,6.2677163 45.5559681,6.25057448 L45.5056798,6.24996208 Z M32.4555229,8.47260139 C33.3310088,8.47260139 34.0199188,8.87679346 34.0199188,9.83305275 C34.0199188,10.7582489 33.3567602,11.1644239 32.5048761,11.1794219 L32.4555229,11.1798541 L30.5191118,11.1798541 L30.5191118,8.47260139 L32.4555229,8.47260139 Z" id="Surf-Conext-logo"></path>
            </g>
        </g>
    </g>
</svg>